<svg xmlns="http://www.w3.org/2000/svg" width="512" height="512" xml:space="preserve"><path style="stroke:none;stroke-width:1;stroke-dasharray:none;stroke-linecap:butt;stroke-dashoffset:0;stroke-linejoin:miter;stroke-miterlimit:4;fill:#000;fill-rule:nonzero;opacity:1" d="M235.356 8c-23.395 34.2-42.165 71.945-55.671 112.052 95.807 17.871 182.582 72.861 244.512 155 24.909-32.93 45.345-69.623 60.709-108.952C417.089 88.47 330.554 33.645 235.356 8zm188.841 267.052c-61.93 70.41-148.71 117.578-244.512 132.912 13.582 34.382 32.388 66.745 55.864 96.036 95.105-22.017 181.595-69.006 249.357-135.496-15.367-33.721-35.794-65.217-60.709-93.452zM98.633 122.506c-16.252.199-32.456 1.151-48.632 2.97-30.518 97.686-30.544 201.453-.066 299.15a486.068 486.068 0 0 0 129.748-2.84c-32.985-81.874-37.502-171.274-12.981-255.686a408.458 408.458 0 0 1 12.916-37.781c-26.776-4.205-53.9-6.126-80.987-5.813z"/></svg>